<?xml version="1.0" encoding="UTF-8" standalone="no"?>
<!-- Created with Inkscape (http://www.inkscape.org/) -->

<svg
   version="1.1"
   id="svg59"
   width="107.07928"
   height="108.57388"
   viewBox="0 0 107.07928 108.57388"
   xmlns="http://www.w3.org/2000/svg"
   xmlns:svg="http://www.w3.org/2000/svg">
  <defs
     id="defs63">
    <linearGradient
       id="linearGradient1413">
      <stop
         style="stop-color:#ffffff;stop-opacity:1;"
         offset="0"
         id="stop1411" />
    </linearGradient>
  </defs>
  <g
     id="layer1"
     transform="translate(657.2254,197.38597)">
    <path
       style="fill:#ffffff;fill-opacity:1;fill-rule:evenodd"
       id="path10183"
       d="m -606.23643,-88.098409 a 56.445667,55.209679 0 0 1 -53.7728,-56.312201 56.445667,55.209679 0 0 1 56.15185,-54.04512 56.445667,55.209679 0 0 1 56.69973,53.49509 56.445667,55.209679 0 0 1 -53.19637,56.833561" />
  </g>
  <g
     id="g67"
     transform="matrix(1.3333333,0,0,-1.3333333,657.2254,548.38597)">
    <g
       id="g69"
       transform="matrix(0.03050739,0,0,0.03093257,-317.21808,89.249396)">
      <g
         id="g5460"
         transform="translate(-5759.2958,7778.5248)">
        <path
           d="m 1932.04,2479.33 c 583.59,-309 847.79,-1002.6 617.79,-1621.49 l -229.39,85.191 c -61.1,28.801 -103.8,86.299 -113.6,153.109 5.4,57.29 6.6,114.79 3.6,172.29 182,85.31 260.4,302.1 175,484.11 -76.5,163.19 -260.8,245.8 -433.51,194.39 -35.99,44.9 -75.19,87.1 -117.29,126.3 -37.1,56.4 -43.6,127.61 -17.1,189.7 l 114.5,216.4"
           style="fill:#f57914;fill-opacity:1;fill-rule:nonzero;stroke:none"
           id="path71" />
        <path
           d="M 2262.94,814.941 2479.34,700.43 C 2170.34,116.832 1476.74,-147.371 857.738,82.6289 l 85.297,229.5001 c 28.801,61 86.205,103.711 153.105,113.5 57.19,-5.399 114.8,-6.59 172.3,-3.59 85.3,-182.008 302.1,-260.398 484.1,-175 163.19,76.492 245.8,260.801 194.39,433.492 44.81,36.008 87.01,75.207 126.2,117.309 56.41,37.191 127.71,43.59 189.81,17.101"
           style="fill:#5a5c61;fill-opacity:1;fill-rule:nonzero;stroke:none"
           id="path73" />
        <path
           d="m 2055.84,1879.73 c 155.6,0 281.8,-126.1 281.8,-281.7 0,-155.6 -126.2,-281.7 -281.8,-281.7 -155.61,0 -281.7,126.1 -281.7,281.7 0,155.6 126.09,281.7 281.7,281.7"
           style="fill:#f57914;fill-opacity:1;fill-rule:nonzero;stroke:none"
           id="path75" />
        <path
           d="m 1598.04,858.34 c 155.59,0 281.7,-126.11 281.7,-281.699 0,-155.61 -126.11,-281.7 -281.7,-281.7 -155.6,0 -281.7,126.09 -281.7,281.7 0,155.589 126.1,281.699 281.7,281.699"
           style="fill:#5a5c61;fill-opacity:1;fill-rule:nonzero;stroke:none"
           id="path77" />
        <path
           d="m 1774.64,2549.84 -85.21,-229.41 c -28.8,-61.1 -86.3,-103.7 -153.09,-113.5 -57.31,5.3 -114.81,6.5 -172.31,3.5 -85.29,182 -302.09,260.41 -484.092,175.1 -163.2,-76.5 -245.801,-260.9 -194.403,-433.6 -44.898,-36 -87.097,-75.2 -126.297,-117.3 -56.402,-37.09 -127.601,-43.5 -189.703,-17.09 l -216.398,114.59 c 309.004,583.51 1002.603,847.8 1621.503,617.71"
           style="fill:#50b637;fill-opacity:1;fill-rule:nonzero;stroke:none"
           id="path79" />
        <path
           d="m 1034.44,2337.63 c 155.6,0 281.69,-126.19 281.69,-281.7 0,-155.6 -126.09,-281.79 -281.69,-281.79 -155.6,0 -281.702,126.19 -281.702,281.79 0,155.51 126.102,281.7 281.702,281.7"
           style="fill:#50b637;fill-opacity:1;fill-rule:nonzero;stroke:none"
           id="path81" />
        <path
           d="m 1335.0886,1609.1362 c 155.3535,0 281.244,-125.9685 281.244,-281.205 0,-155.3269 -125.8905,-281.295 -281.244,-281.295 -155.3539,0 -281.256,125.9681 -281.256,281.295 0,155.2365 125.9021,281.205 281.256,281.205"
           style="fill:#50b637;fill-opacity:1;fill-rule:nonzero;stroke:none;stroke-width:0.998325"
           id="path81-2" />
        <path
           d="M 797.836,559.332 C 834.938,502.93 841.34,431.641 814.938,369.539 L 700.336,153.129 c -583.5,309 -847.699,1002.611 -617.6993,1621.601 l 229.3983,-85.3 c 61.102,-28.79 103.703,-86.2 113.5,-153.1 -5.297,-57.19 -6.496,-114.8 -3.5,-172.3 -181.996,-85.29 -260.398,-302.1 -175.097,-484.089 76.5,-163.211 260.898,-245.8 433.597,-194.41 36.004,-44.793 75.203,-87 117.301,-126.199"
           style="fill:#3993b7;fill-opacity:1;fill-rule:nonzero;stroke:none"
           id="path83" />
        <path
           d="m 576.539,1316.13 c 155.602,0 281.797,-126.1 281.797,-281.7 0,-155.598 -126.195,-281.7 -281.797,-281.7 -155.504,0 -281.699,126.102 -281.699,281.7 0,155.6 126.195,281.7 281.699,281.7"
           style="fill:#3993b7;fill-opacity:1;fill-rule:nonzero;stroke:none"
           id="path85" />
      </g>
    </g>
  </g>
</svg>
